<?xml version="1.0"?>
<svg xmlns="http://www.w3.org/2000/svg" version="1.1" width="1024.49731445313pt" height="639.598205566406pt" viewBox="31.9911171326626 32.6509637832642 1024.49733421612 639.598222732544" preserveAspectRatio="none" xmlns:xlink="http://www.w3.org/1999/xlink">
  <defs>
  </defs>
  <path d="M488.057952880859,326.742950439453 L541.337341308594,351.818603515625 " stroke="#6E6E6E" fill="none" stroke-width="1" stroke-opacity="1" />
  <path d="M546.494689941406,354.245880126953 L540.391967773438,353.827239990234 L542.282653808594,349.809936523438 L546.494689941406,354.245880126953 " stroke="none" fill="#6E6E6E" fill-rule="evenodd" stroke-width="0" fill-opacity="1" />
  <path d="M546.494689941406,354.245880126953 L540.391967773438,353.827239990234 L542.282653808594,349.809936523438 L546.494689941406,354.245880126953 " stroke="#6E6E6E" fill="none" stroke-width="1" stroke-opacity="1" />
  <path d="M593.356872558594,395.191314697266 L624.975280761719,469.439422607422 " stroke="#6E6E6E" fill="none" stroke-width="1" stroke-opacity="1" />
  <path d="M627.20849609375,474.683685302734 L622.932739257813,470.309204101563 L627.017761230469,468.569610595703 L627.20849609375,474.683685302734 " stroke="none" fill="#6E6E6E" fill-rule="evenodd" stroke-width="0" fill-opacity="1" />
  <path d="M627.20849609375,474.683685302734 L622.932739257813,470.309204101563 L627.017761230469,468.569610595703 L627.20849609375,474.683685302734 " stroke="#6E6E6E" fill="none" stroke-width="1" stroke-opacity="1" />
  <path d="M620.421203613281,382.882781982422 L681.143798828125,401.392303466797 " stroke="#6E6E6E" fill="none" stroke-width="1" stroke-opacity="1" />
  <path d="M686.596130371094,403.054321289063 L680.496520996094,403.515869140625 L681.791076660156,399.268798828125 L686.596130371094,403.054321289063 " stroke="none" fill="#6E6E6E" fill-rule="evenodd" stroke-width="0" fill-opacity="1" />
  <path d="M686.596130371094,403.054321289063 L680.496520996094,403.515869140625 L681.791076660156,399.268798828125 L686.596130371094,403.054321289063 " stroke="#6E6E6E" fill="none" stroke-width="1" stroke-opacity="1" />
  <path d="M699.051330566406,393.785461425781 L612.158386230469,313.223876953125 " stroke="#6E6E6E" fill="none" stroke-width="1" stroke-opacity="1" />
  <path d="M607.978393554688,309.348480224609 L613.667663574219,311.595886230469 L610.648986816406,314.851806640625 L607.978393554688,309.348480224609 " stroke="none" fill="#6E6E6E" fill-rule="evenodd" stroke-width="0" fill-opacity="1" />
  <path d="M607.978393554688,309.348480224609 L613.667663574219,311.595886230469 L610.648986816406,314.851806640625 L607.978393554688,309.348480224609 " stroke="#6E6E6E" fill="none" stroke-width="1" stroke-opacity="1" />
  <path d="M619.621704101563,285.667938232422 L699.412963867188,285.548492431641 " stroke="#6E6E6E" fill="none" stroke-width="1" stroke-opacity="1" />
  <path d="M705.112915039063,285.539947509766 L699.416259765625,287.768493652344 L699.409606933594,283.328491210938 L705.112915039063,285.539947509766 " stroke="none" fill="#6E6E6E" fill-rule="evenodd" stroke-width="0" fill-opacity="1" />
  <path d="M705.112915039063,285.539947509766 L699.416259765625,287.768493652344 L699.409606933594,283.328491210938 L705.112915039063,285.539947509766 " stroke="#6E6E6E" fill="none" stroke-width="1" stroke-opacity="1" />
  <path d="M716.440612792969,268.538299560547 L628.90576171875,211.027404785156 " stroke="#6E6E6E" fill="none" stroke-width="1" stroke-opacity="1" />
  <path d="M624.141906738281,207.897537231445 L630.124694824219,209.172012329102 L627.686706542969,212.882781982422 L624.141906738281,207.897537231445 " stroke="none" fill="#6E6E6E" fill-rule="evenodd" stroke-width="0" fill-opacity="1" />
  <path d="M624.141906738281,207.897537231445 L630.124694824219,209.172012329102 L627.686706542969,212.882781982422 L624.141906738281,207.897537231445 " stroke="#6E6E6E" fill="none" stroke-width="1" stroke-opacity="1" />
  <path d="M487.3330078125,226.950958251953 L548.180053710938,202.740234375 " stroke="#6E6E6E" fill="none" stroke-width="1" stroke-opacity="1" />
  <path d="M553.476135253906,200.632919311523 L549.000732421875,204.802932739258 L547.359252929688,200.677520751953 L553.476135253906,200.632919311523 " stroke="none" fill="#6E6E6E" fill-rule="evenodd" stroke-width="0" fill-opacity="1" />
  <path d="M553.476135253906,200.632919311523 L549.000732421875,204.802932739258 L547.359252929688,200.677520751953 L553.476135253906,200.632919311523 " stroke="#6E6E6E" fill="none" stroke-width="1" stroke-opacity="1" />
  <path d="M614.878601074219,162.236068725586 L673.363098144531,105.323272705078 " stroke="#6E6E6E" fill="none" stroke-width="1" stroke-opacity="1" />
  <path d="M677.448181152344,101.348022460938 L674.911376953125,106.914276123047 L671.814880371094,103.73225402832 L677.448181152344,101.348022460938 " stroke="none" fill="#6E6E6E" fill-rule="evenodd" stroke-width="0" fill-opacity="1" />
  <path d="M677.448181152344,101.348022460938 L674.911376953125,106.914276123047 L671.814880371094,103.73225402832 L677.448181152344,101.348022460938 " stroke="#6E6E6E" fill="none" stroke-width="1" stroke-opacity="1" />
  <path d="M627.726196289063,188.368072509766 L742.523620605469,196.120239257813 " stroke="#6E6E6E" fill="none" stroke-width="1" stroke-opacity="1" />
  <path d="M748.210693359375,196.504272460938 L742.374084472656,198.335189819336 L742.673217773438,193.9052734375 L748.210693359375,196.504272460938 " stroke="none" fill="#6E6E6E" fill-rule="evenodd" stroke-width="0" fill-opacity="1" />
  <path d="M748.210693359375,196.504272460938 L742.374084472656,198.335189819336 L742.673217773438,193.9052734375 L748.210693359375,196.504272460938 " stroke="#6E6E6E" fill="none" stroke-width="1" stroke-opacity="1" />
  <path d="M627.726196289063,177.424072265625 L792.207336425781,140.044189453125 " stroke="#6E6E6E" fill="none" stroke-width="1" stroke-opacity="1" />
  <path d="M797.765563964844,138.781036376953 L792.699279785156,142.208999633789 L791.71533203125,137.879409790039 L797.765563964844,138.781036376953 " stroke="none" fill="#6E6E6E" fill-rule="evenodd" stroke-width="0" fill-opacity="1" />
  <path d="M797.765563964844,138.781036376953 L792.699279785156,142.208999633789 L791.71533203125,137.879409790039 L797.765563964844,138.781036376953 " stroke="#6E6E6E" fill="none" stroke-width="1" stroke-opacity="1" />
  <path d="M844.755310058594,153.083572387695 L875.069091796875,208.992736816406 " stroke="#6E6E6E" fill="none" stroke-width="1" stroke-opacity="1" />
  <path d="M877.785888671875,214.00358581543 L873.117431640625,210.050888061523 L877.020629882813,207.934585571289 L877.785888671875,214.00358581543 " stroke="none" fill="#6E6E6E" fill-rule="evenodd" stroke-width="0" fill-opacity="1" />
  <path d="M877.785888671875,214.00358581543 L873.117431640625,210.050888061523 L877.020629882813,207.934585571289 L877.785888671875,214.00358581543 " stroke="#6E6E6E" fill="none" stroke-width="1" stroke-opacity="1" />
  <path d="M884.497802734375,261.253601074219 L856.725280761719,368.859649658203 " stroke="#6E6E6E" fill="none" stroke-width="1" stroke-opacity="1" />
  <path d="M855.30078125,374.378784179688 L854.57568359375,368.304840087891 L858.874816894531,369.414428710938 L855.30078125,374.378784179688 " stroke="none" fill="#6E6E6E" fill-rule="evenodd" stroke-width="0" fill-opacity="1" />
  <path d="M855.30078125,374.378784179688 L854.57568359375,368.304840087891 L858.874816894531,369.414428710938 L855.30078125,374.378784179688 " stroke="#6E6E6E" fill="none" stroke-width="1" stroke-opacity="1" />
  <path d="M258.542266845703,178.969711303711 L301.370819091797,212.468948364258 " stroke="#6E6E6E" fill="none" stroke-width="1" stroke-opacity="1" />
  <path d="M305.860565185547,215.980667114258 L300.003112792969,214.217575073242 L302.738555908203,210.720306396484 L305.860565185547,215.980667114258 " stroke="none" fill="#6E6E6E" fill-rule="evenodd" stroke-width="0" fill-opacity="1" />
  <path d="M305.860565185547,215.980667114258 L300.003112792969,214.217575073242 L302.738555908203,210.720306396484 L305.860565185547,215.980667114258 " stroke="#6E6E6E" fill="none" stroke-width="1" stroke-opacity="1" />
  <path d="M373.009216308594,239.464279174805 L413.059234619141,239.464279174805 " stroke="#6E6E6E" fill="none" stroke-width="1" stroke-opacity="1" />
  <path d="M418.759216308594,239.464263916016 L413.059204101563,241.684265136719 L413.059204101563,237.244277954102 L418.759216308594,239.464263916016 " stroke="none" fill="#6E6E6E" fill-rule="evenodd" stroke-width="0" fill-opacity="1" />
  <path d="M418.759216308594,239.464263916016 L413.059204101563,241.684265136719 L413.059204101563,237.244277954102 L418.759216308594,239.464263916016 " stroke="#6E6E6E" fill="none" stroke-width="1" stroke-opacity="1" />
  <path d="M429.777191162109,256.245422363281 L374.711608886719,291.640594482422 " stroke="#6E6E6E" fill="none" stroke-width="1" stroke-opacity="1" />
  <path d="M369.916748046875,294.72265625 L373.511260986328,289.773132324219 L375.912017822266,293.508087158203 L369.916748046875,294.72265625 " stroke="none" fill="#6E6E6E" fill-rule="evenodd" stroke-width="0" fill-opacity="1" />
  <path d="M369.916748046875,294.72265625 L373.511260986328,289.773132324219 L375.912017822266,293.508087158203 L369.916748046875,294.72265625 " stroke="#6E6E6E" fill="none" stroke-width="1" stroke-opacity="1" />
  <path d="M265.195953369141,344.821136474609 L293.636108398438,333.449584960938 " stroke="#6E6E6E" fill="none" stroke-width="1" stroke-opacity="1" />
  <path d="M298.9287109375,331.333374023438 L294.460327148438,335.510925292969 L292.811920166016,331.388275146484 L298.9287109375,331.333374023438 " stroke="none" fill="#6E6E6E" fill-rule="evenodd" stroke-width="0" fill-opacity="1" />
  <path d="M298.9287109375,331.333374023438 L294.460327148438,335.510925292969 L292.811920166016,331.388275146484 L298.9287109375,331.333374023438 " stroke="#6E6E6E" fill="none" stroke-width="1" stroke-opacity="1" />
  <path d="M373.1787109375,315.350463867188 L415.571502685547,314.050079345703 " stroke="#6E6E6E" fill="none" stroke-width="1" stroke-opacity="1" />
  <path d="M421.268829345703,313.875305175781 L415.639556884766,316.26904296875 L415.50341796875,311.831115722656 L421.268829345703,313.875305175781 " stroke="none" fill="#6E6E6E" fill-rule="evenodd" stroke-width="0" fill-opacity="1" />
  <path d="M421.268829345703,313.875305175781 L415.639556884766,316.26904296875 L415.50341796875,311.831115722656 L421.268829345703,313.875305175781 " stroke="#6E6E6E" fill="none" stroke-width="1" stroke-opacity="1" />
  <path d="M824.801513671875,417.649963378906 L672.879211425781,536.792724609375 " stroke="#6E6E6E" fill="none" stroke-width="1" stroke-opacity="1" />
  <path d="M668.393981933594,540.310180664063 L671.509216308594,535.045776367188 L674.249145507813,538.53955078125 L668.393981933594,540.310180664063 " stroke="none" fill="#6E6E6E" fill-rule="evenodd" stroke-width="0" fill-opacity="1" />
  <path d="M668.393981933594,540.310180664063 L671.509216308594,535.045776367188 L674.249145507813,538.53955078125 L668.393981933594,540.310180664063 " stroke="#6E6E6E" fill="none" stroke-width="1" stroke-opacity="1" />
  <path d="M261.7783203125,383.49267578125 L596.574951171875,543.763000488281 " stroke="#6E6E6E" fill="none" stroke-width="1" stroke-opacity="1" />
  <path d="M601.716186523438,546.224182128906 L595.616394042969,545.765441894531 L597.533508300781,541.760620117188 L601.716186523438,546.224182128906 " stroke="none" fill="#6E6E6E" fill-rule="evenodd" stroke-width="0" fill-opacity="1" />
  <path d="M601.716186523438,546.224182128906 L595.616394042969,545.765441894531 L597.533508300781,541.760620117188 L601.716186523438,546.224182128906 " stroke="#6E6E6E" fill="none" stroke-width="1" stroke-opacity="1" />
  <path d="M675.5625,560.215209960938 L717.020141601563,556.208679199219 " stroke="#6E6E6E" fill="none" stroke-width="1" stroke-opacity="1" />
  <path d="M722.693725585938,555.660400390625 L717.233703613281,558.418395996094 L716.806579589844,553.998962402344 L722.693725585938,555.660400390625 " stroke="none" fill="#6E6E6E" fill-rule="evenodd" stroke-width="0" fill-opacity="1" />
  <path d="M722.693725585938,555.660400390625 L717.233703613281,558.418395996094 L716.806579589844,553.998962402344 L722.693725585938,555.660400390625 " stroke="#6E6E6E" fill="none" stroke-width="1" stroke-opacity="1" />
  <path d="M307.263153076172,215.839279174805 L364.505249023438,215.839279174805 L364.505249023438,215.839279174805 C369.201843261719,215.839263916016 373.009185791016,219.646606445313 373.009185791016,224.343200683594 C373.009185791016,224.343200683594 373.009185791016,224.343215942383 373.009185791016,224.343215942383 L373.009216308594,224.343215942383 L373.009216308594,254.585342407227 L373.009185791016,254.585327148438 C373.009185791016,259.281921386719 369.201843261719,263.089263916016 364.505249023438,263.089263916016 L364.505249023438,263.089263916016 L307.263153076172,263.089263916016 L307.263153076172,263.089263916016 C302.566558837891,263.089263916016 298.759216308594,259.281921386719 298.759216308594,254.585342407227 L298.759216308594,224.343215942383 L298.759185791016,224.343215942383 C298.759185791016,219.646621704102 302.566528320313,215.839279174805 307.263122558594,215.839263916016 " stroke="none" fill="#F2E279" fill-rule="evenodd" stroke-width="0" fill-opacity="1" />
  <text x="2.62885570526123" y="36.7967185974121" dx="0" dy="0" font-family="Arial" font-size="7.20000017166138pt" fill="#000000" style="text-anchor:start" transform="matrix(0.750000 0.000000 0.000000 0.750000 298.759216308594 215.839279174805)">Feature To Point</text>
  <path d="M307.263153076172,215.839279174805 L364.505249023438,215.839279174805 L364.505249023438,215.839279174805 C369.201843261719,215.839263916016 373.009185791016,219.646606445313 373.009185791016,224.343200683594 C373.009185791016,224.343200683594 373.009185791016,224.343215942383 373.009185791016,224.343215942383 L373.009216308594,224.343215942383 L373.009216308594,254.585342407227 L373.009185791016,254.585327148438 C373.009185791016,259.281921386719 369.201843261719,263.089263916016 364.505249023438,263.089263916016 L364.505249023438,263.089263916016 L307.263153076172,263.089263916016 L307.263153076172,263.089263916016 C302.566558837891,263.089263916016 298.759216308594,259.281921386719 298.759216308594,254.585342407227 L298.759216308594,224.343215942383 L298.759185791016,224.343215942383 C298.759185791016,219.646621704102 302.566528320313,215.839279174805 307.263122558594,215.839263916016 " stroke="none" fill="none" stroke-width="0.6" stroke-opacity="0" />
  <path d="M493.009185791016,239.464263916016 C493.009185791016,252.511993408203 476.387756347656,263.089263916016 455.884216308594,263.089263916016 C435.380645751953,263.089263916016 418.759216308594,252.512008666992 418.759216308594,239.464279174805 C418.759216308594,239.464279174805 418.759216308594,239.464279174805 418.759216308594,239.464279174805 L418.759216308594,239.464294433594 C418.759185791016,226.416564941406 435.380615234375,215.839279174805 455.884155273438,215.839279174805 C476.387725830078,215.839263916016 493.009185791016,226.416534423828 493.009185791016,239.464279174805 C493.009185791016,239.464279174805 493.009185791016,239.464279174805 493.009185791016,239.464279174805 " stroke="none" fill="#83CC7C" fill-rule="evenodd" stroke-width="0" fill-opacity="1" />
  <text x="1.51218891143799" y="36.7967185974121" dx="0" dy="0" font-family="Arial" font-size="7.20000017166138pt" fill="#000000" style="text-anchor:start" transform="matrix(0.750000 0.000000 0.000000 0.750000 418.759216308594 215.839279174805)">parcel_to_poin</text>
  <text x="77.5715255737305" y="36.7967185974121" dx="0" dy="0" font-family="Arial" font-size="7.20000017166138pt" fill="#000000" style="text-anchor:start" transform="matrix(0.750000 0.000000 0.000000 0.750000 418.759216308594 215.839279174805)"> ...</text>
  <path d="M493.009185791016,239.464263916016 C493.009185791016,252.511993408203 476.387756347656,263.089263916016 455.884216308594,263.089263916016 C435.380645751953,263.089263916016 418.759216308594,252.512008666992 418.759216308594,239.464279174805 C418.759216308594,239.464279174805 418.759216308594,239.464279174805 418.759216308594,239.464279174805 L418.759216308594,239.464294433594 C418.759185791016,226.416564941406 435.380615234375,215.839279174805 455.884155273438,215.839279174805 C476.387725830078,215.839263916016 493.009185791016,226.416534423828 493.009185791016,239.464279174805 C493.009185791016,239.464279174805 493.009185791016,239.464279174805 493.009185791016,239.464279174805 " stroke="none" fill="none" stroke-width="0.6" stroke-opacity="0" />
  <path d="M279.675537109375,152.133071899414 C279.675537109375,171.024627685547 254.852523803711,186.339263916016 224.231796264648,186.339263916016 C193.611038208008,186.339279174805 168.787979125977,171.024642944336 168.787979125977,152.133071899414 C168.787979125977,152.133071899414 168.787979125977,152.133071899414 168.787979125977,152.133071899414 L168.787963867188,152.133102416992 C168.787948608398,133.24153137207 193.610961914063,117.926887512207 224.231719970703,117.926879882813 C254.852493286133,117.926864624023 279.675537109375,133.241485595703 279.675537109375,152.133071899414 C279.675537109375,152.133071899414 279.675537109375,152.133071899414 279.675537109375,152.133071899414 " stroke="none" fill="#70AECC" fill-rule="evenodd" stroke-width="0" fill-opacity="1" />
  <text x="35.6068534851074" y="50.9049873352051" dx="0" dy="0" font-family="Arial" font-size="7.20000017166138pt" fill="#000000" style="text-anchor:start" transform="matrix(0.750000 0.000000 0.000000 0.750000 168.787979125977 117.926879882813)">Gooch_2022</text>
  <path d="M279.675537109375,152.133071899414 C279.675537109375,171.024627685547 254.852523803711,186.339263916016 224.231796264648,186.339263916016 C193.611038208008,186.339279174805 168.787979125977,171.024642944336 168.787979125977,152.133071899414 C168.787979125977,152.133071899414 168.787979125977,152.133071899414 168.787979125977,152.133071899414 L168.787963867188,152.133102416992 C168.787948608398,133.24153137207 193.610961914063,117.926887512207 224.231719970703,117.926879882813 C254.852493286133,117.926864624023 279.675537109375,133.241485595703 279.675537109375,152.133071899414 C279.675537109375,152.133071899414 279.675537109375,152.133071899414 279.675537109375,152.133071899414 " stroke="none" fill="none" stroke-width="0.6" stroke-opacity="0" />
  <path d="M277.873474121094,363.165710449219 C277.873474121094,379.500335693359 251.65657043457,392.742156982422 219.316390991211,392.7421875 C186.976181030273,392.7421875 160.759231567383,379.500366210938 160.759231567383,363.165740966797 C160.759231567383,363.165740966797 160.759231567383,363.165740966797 160.759231567383,363.165740966797 L160.759216308594,363.165740966797 C160.759201049805,346.831115722656 186.976104736328,333.589294433594 219.316314697266,333.589294433594 C251.656524658203,333.589263916016 277.873474121094,346.831085205078 277.873474121094,363.165740966797 C277.873474121094,363.165740966797 277.873474121094,363.165740966797 277.873474121094,363.165740966797 " stroke="none" fill="#70AECC" fill-rule="evenodd" stroke-width="0" fill-opacity="1" />
  <text x="39.7535209655762" y="44.7319869995117" dx="0" dy="0" font-family="Arial" font-size="7.20000017166138pt" fill="#000000" style="text-anchor:start" transform="matrix(0.750000 0.000000 0.000000 0.750000 160.759231567383 333.589294433594)">Gooch_2021</text>
  <path d="M277.873474121094,363.165710449219 C277.873474121094,379.500335693359 251.65657043457,392.742156982422 219.316390991211,392.7421875 C186.976181030273,392.7421875 160.759231567383,379.500366210938 160.759231567383,363.165740966797 C160.759231567383,363.165740966797 160.759231567383,363.165740966797 160.759231567383,363.165740966797 L160.759216308594,363.165740966797 C160.759201049805,346.831115722656 186.976104736328,333.589294433594 219.316314697266,333.589294433594 C251.656524658203,333.589263916016 277.873474121094,346.831085205078 277.873474121094,363.165740966797 C277.873474121094,363.165740966797 277.873474121094,363.165740966797 277.873474121094,363.165740966797 " stroke="none" fill="none" stroke-width="0.6" stroke-opacity="0" />
  <path d="M307.432647705078,292.864288330078 L364.674743652344,292.864288330078 L364.674743652344,292.864288330078 C369.371337890625,292.8642578125 373.178680419922,296.671600341797 373.178680419922,301.368194580078 C373.178680419922,301.368194580078 373.178680419922,301.368225097656 373.178680419922,301.368225097656 L373.1787109375,301.368225097656 L373.1787109375,331.6103515625 L373.178680419922,331.610321044922 C373.178680419922,336.306915283203 369.371337890625,340.1142578125 364.674743652344,340.1142578125 L364.674743652344,340.114288330078 L307.432647705078,340.114288330078 L307.432647705078,340.1142578125 C302.736053466797,340.114288330078 298.9287109375,336.306945800781 298.9287109375,331.6103515625 L298.9287109375,301.368225097656 L298.928680419922,301.368225097656 C298.928680419922,296.671630859375 302.736022949219,292.864288330078 307.4326171875,292.8642578125 " stroke="none" fill="#F2E279" fill-rule="evenodd" stroke-width="0" fill-opacity="1" />
  <text x="15.1861886978149" y="36.7967185974121" dx="0" dy="0" font-family="Arial" font-size="7.20000017166138pt" fill="#000000" style="text-anchor:start" transform="matrix(0.750000 0.000000 0.000000 0.750000 298.9287109375 292.864288330078)">Spatial Join</text>
  <path d="M307.432647705078,292.864288330078 L364.674743652344,292.864288330078 L364.674743652344,292.864288330078 C369.371337890625,292.8642578125 373.178680419922,296.671600341797 373.178680419922,301.368194580078 C373.178680419922,301.368194580078 373.178680419922,301.368225097656 373.178680419922,301.368225097656 L373.1787109375,301.368225097656 L373.1787109375,331.6103515625 L373.178680419922,331.610321044922 C373.178680419922,336.306915283203 369.371337890625,340.1142578125 364.674743652344,340.1142578125 L364.674743652344,340.114288330078 L307.432647705078,340.114288330078 L307.432647705078,340.1142578125 C302.736053466797,340.114288330078 298.9287109375,336.306945800781 298.9287109375,331.6103515625 L298.9287109375,301.368225097656 L298.928680419922,301.368225097656 C298.928680419922,296.671630859375 302.736022949219,292.864288330078 307.4326171875,292.8642578125 " stroke="none" fill="none" stroke-width="0.6" stroke-opacity="0" />
  <path d="M495.428680419922,312.7392578125 C495.428680419922,325.786987304688 478.807250976563,336.3642578125 458.3037109375,336.3642578125 C437.800140380859,336.364288330078 421.1787109375,325.787017822266 421.1787109375,312.739288330078 C421.1787109375,312.739288330078 421.1787109375,312.739288330078 421.1787109375,312.739288330078 L421.1787109375,312.739288330078 C421.178680419922,299.691558837891 437.800109863281,289.114288330078 458.303649902344,289.114288330078 C478.807220458984,289.1142578125 495.428680419922,299.691528320313 495.428680419922,312.739288330078 C495.428680419922,312.739288330078 495.428680419922,312.739288330078 495.428680419922,312.739288330078 " stroke="none" fill="#83CC7C" fill-rule="evenodd" stroke-width="0" fill-opacity="1" />
  <text x="1.84618902206421" y="36.7967185974121" dx="0" dy="0" font-family="Arial" font-size="7.20000017166138pt" fill="#000000" style="text-anchor:start" transform="matrix(0.750000 0.000000 0.000000 0.750000 421.1787109375 289.114288330078)">SP_join_new_</text>
  <text x="76.5681915283203" y="36.7967185974121" dx="0" dy="0" font-family="Arial" font-size="7.20000017166138pt" fill="#000000" style="text-anchor:start" transform="matrix(0.750000 0.000000 0.000000 0.750000 421.1787109375 289.114288330078)"> ...</text>
  <path d="M495.428680419922,312.7392578125 C495.428680419922,325.786987304688 478.807250976563,336.3642578125 458.3037109375,336.3642578125 C437.800140380859,336.364288330078 421.1787109375,325.787017822266 421.1787109375,312.739288330078 C421.1787109375,312.739288330078 421.1787109375,312.739288330078 421.1787109375,312.739288330078 L421.1787109375,312.739288330078 C421.178680419922,299.691558837891 437.800109863281,289.114288330078 458.303649902344,289.114288330078 C478.807220458984,289.1142578125 495.428680419922,299.691528320313 495.428680419922,312.739288330078 C495.428680419922,312.739288330078 495.428680419922,312.739288330078 495.428680419922,312.739288330078 " stroke="none" fill="none" stroke-width="0.6" stroke-opacity="0" />
  <path d="M554.675109863281,347.941314697266 L611.917236328125,347.941314697266 L611.917236328125,347.941314697266 C616.613830566406,347.941284179688 620.421142578125,351.748626708984 620.421142578125,356.445220947266 C620.421142578125,356.445220947266 620.421142578125,356.445251464844 620.421142578125,356.445251464844 L620.421203613281,356.445251464844 L620.421203613281,386.687377929688 L620.421142578125,386.687347412109 C620.421142578125,391.383941650391 616.613830566406,395.191284179688 611.917236328125,395.191284179688 L611.917236328125,395.191314697266 L554.675109863281,395.191314697266 L554.675109863281,395.191284179688 C549.978515625,395.191314697266 546.171203613281,391.383972167969 546.171203613281,386.687377929688 L546.171203613281,356.445251464844 L546.171142578125,356.445251464844 C546.171142578125,351.748657226563 549.978515625,347.941314697266 554.675109863281,347.941284179688 " stroke="none" fill="#F2E279" fill-rule="evenodd" stroke-width="0" fill-opacity="1" />
  <text x="4.1861891746521" y="29.8967189788818" dx="0" dy="0" font-family="Arial" font-size="7.20000017166138pt" fill="#000000" style="text-anchor:start" transform="matrix(0.750000 0.000000 0.000000 0.750000 546.171203613281 347.941314697266)">Select Layer By </text>
  <text x="23.8628559112549" y="43.6967163085938" dx="0" dy="0" font-family="Arial" font-size="7.20000017166138pt" fill="#000000" style="text-anchor:start" transform="matrix(0.750000 0.000000 0.000000 0.750000 546.171203613281 347.941314697266)">Attribute</text>
  <path d="M554.675109863281,347.941314697266 L611.917236328125,347.941314697266 L611.917236328125,347.941314697266 C616.613830566406,347.941284179688 620.421142578125,351.748626708984 620.421142578125,356.445220947266 C620.421142578125,356.445220947266 620.421142578125,356.445251464844 620.421142578125,356.445251464844 L620.421203613281,356.445251464844 L620.421203613281,386.687377929688 L620.421142578125,386.687347412109 C620.421142578125,391.383941650391 616.613830566406,395.191284179688 611.917236328125,395.191284179688 L611.917236328125,395.191314697266 L554.675109863281,395.191314697266 L554.675109863281,395.191284179688 C549.978515625,395.191314697266 546.171203613281,391.383972167969 546.171203613281,386.687377929688 L546.171203613281,356.445251464844 L546.171142578125,356.445251464844 C546.171142578125,351.748657226563 549.978515625,347.941314697266 554.675109863281,347.941284179688 " stroke="none" fill="none" stroke-width="0.6" stroke-opacity="0" />
  <path d="M757.171325683594,413.250640869141 C757.171325683594,426.298370361328 740.549926757813,436.875640869141 720.04638671875,436.875640869141 C699.542785644531,436.875671386719 682.92138671875,426.298400878906 682.92138671875,413.250671386719 C682.92138671875,413.250671386719 682.92138671875,413.250671386719 682.92138671875,413.250671386719 L682.92138671875,413.250671386719 C682.921325683594,400.202941894531 699.542785644531,389.625671386719 720.046325683594,389.625671386719 C740.549865722656,389.625640869141 757.171325683594,400.202911376953 757.171325683594,413.250671386719 C757.171325683594,413.250671386719 757.171325683594,413.250671386719 757.171325683594,413.250671386719 " stroke="none" fill="#83CC7C" fill-rule="evenodd" stroke-width="0" fill-opacity="1" />
  <text x="2.84285545349121" y="36.7967185974121" dx="0" dy="0" font-family="Arial" font-size="7.20000017166138pt" fill="#000000" style="text-anchor:start" transform="matrix(0.750000 0.000000 0.000000 0.750000 682.92138671875 389.625671386719)">SP_join_2012</text>
  <text x="75.5715255737305" y="36.7967185974121" dx="0" dy="0" font-family="Arial" font-size="7.20000017166138pt" fill="#000000" style="text-anchor:start" transform="matrix(0.750000 0.000000 0.000000 0.750000 682.92138671875 389.625671386719)"> ...</text>
  <path d="M757.171325683594,413.250640869141 C757.171325683594,426.298370361328 740.549926757813,436.875640869141 720.04638671875,436.875640869141 C699.542785644531,436.875671386719 682.92138671875,426.298400878906 682.92138671875,413.250671386719 C682.92138671875,413.250671386719 682.92138671875,413.250671386719 682.92138671875,413.250671386719 L682.92138671875,413.250671386719 C682.921325683594,400.202941894531 699.542785644531,389.625671386719 720.046325683594,389.625671386719 C740.549865722656,389.625640869141 757.171325683594,400.202911376953 757.171325683594,413.250671386719 C757.171325683594,413.250671386719 757.171325683594,413.250671386719 757.171325683594,413.250671386719 " stroke="none" fill="none" stroke-width="0.6" stroke-opacity="0" />
  <path d="M662.306213378906,491.717987060547 C662.306213378906,501.503784179688 649.840148925781,509.436737060547 634.462524414063,509.436737060547 C619.084838867188,509.436767578125 606.618774414063,501.503814697266 606.618774414063,491.718017578125 C606.618774414063,491.718017578125 606.618774414063,491.718017578125 606.618774414063,491.718017578125 L606.618713378906,491.718017578125 C606.618713378906,481.932220458984 619.084777832031,473.999267578125 634.462463378906,473.999267578125 C649.840148925781,473.999237060547 662.306213378906,481.932189941406 662.306213378906,491.718017578125 C662.306213378906,491.718017578125 662.306213378906,491.718017578125 662.306213378906,491.718017578125 " stroke="none" fill="#82CAED" fill-rule="evenodd" stroke-width="0" fill-opacity="1" />
  <text x="17.48952293396" y="28.9217185974121" dx="0" dy="0" font-family="Arial" font-size="7.20000017166138pt" fill="#000000" style="text-anchor:start" transform="matrix(0.750000 0.000000 0.000000 0.750000 606.618774414063 473.999267578125)">Count</text>
  <path d="M662.306213378906,491.717987060547 C662.306213378906,501.503784179688 649.840148925781,509.436737060547 634.462524414063,509.436737060547 C619.084838867188,509.436767578125 606.618774414063,501.503814697266 606.618774414063,491.718017578125 C606.618774414063,491.718017578125 606.618774414063,491.718017578125 606.618774414063,491.718017578125 L606.618713378906,491.718017578125 C606.618713378906,481.932220458984 619.084777832031,473.999267578125 634.462463378906,473.999267578125 C649.840148925781,473.999237060547 662.306213378906,481.932189941406 662.306213378906,491.718017578125 C662.306213378906,491.718017578125 662.306213378906,491.718017578125 662.306213378906,491.718017578125 " stroke="none" fill="none" stroke-width="0.6" stroke-opacity="0" />
  <path d="M553.875610351563,262.098510742188 L611.117736816406,262.098510742188 L611.117736816406,262.098510742188 C615.814331054688,262.098480224609 619.621643066406,265.905822753906 619.621643066406,270.602416992188 C619.621643066406,270.602416992188 619.621643066406,270.602447509766 619.621643066406,270.602447509766 L619.621704101563,270.602447509766 L619.621704101563,300.844573974609 L619.621643066406,300.844543457031 C619.621643066406,305.541137695313 615.814331054688,309.348480224609 611.117736816406,309.348480224609 L611.117736816406,309.348510742188 L553.875610351563,309.348510742188 L553.875610351563,309.348480224609 C549.179016113281,309.348510742188 545.371704101563,305.541168212891 545.371704101563,300.844573974609 L545.371704101563,270.602447509766 L545.371643066406,270.602447509766 C545.371643066406,265.905853271484 549.179016113281,262.098510742188 553.875610351563,262.098480224609 " stroke="none" fill="#F2E279" fill-rule="evenodd" stroke-width="0" fill-opacity="1" />
  <text x="6.52618932723999" y="36.7967185974121" dx="0" dy="0" font-family="Arial" font-size="7.20000017166138pt" fill="#000000" style="text-anchor:start" transform="matrix(0.750000 0.000000 0.000000 0.750000 545.371704101563 262.098510742188)">Copy Features</text>
  <path d="M553.875610351563,262.098510742188 L611.117736816406,262.098510742188 L611.117736816406,262.098510742188 C615.814331054688,262.098480224609 619.621643066406,265.905822753906 619.621643066406,270.602416992188 C619.621643066406,270.602416992188 619.621643066406,270.602447509766 619.621643066406,270.602447509766 L619.621704101563,270.602447509766 L619.621704101563,300.844573974609 L619.621643066406,300.844543457031 C619.621643066406,305.541137695313 615.814331054688,309.348480224609 611.117736816406,309.348480224609 L611.117736816406,309.348510742188 L553.875610351563,309.348510742188 L553.875610351563,309.348480224609 C549.179016113281,309.348510742188 545.371704101563,305.541168212891 545.371704101563,300.844573974609 L545.371704101563,270.602447509766 L545.371643066406,270.602447509766 C545.371643066406,265.905853271484 549.179016113281,262.098510742188 553.875610351563,262.098480224609 " stroke="none" fill="none" stroke-width="0.6" stroke-opacity="0" />
  <path d="M779.358520507813,285.484375 C779.358520507813,298.532104492188 762.737121582031,309.109375 742.233581542969,309.109375 C721.72998046875,309.109405517578 705.108581542969,298.532135009766 705.108581542969,285.484405517578 C705.108581542969,285.484405517578 705.108581542969,285.484405517578 705.108581542969,285.484405517578 L705.108581542969,285.484405517578 C705.108520507813,272.436676025391 721.72998046875,261.859405517578 742.233520507813,261.859405517578 C762.737060546875,261.859375 779.358520507813,272.436645507813 779.358520507813,285.484405517578 C779.358520507813,285.484405517578 779.358520507813,285.484405517578 779.358520507813,285.484405517578 " stroke="none" fill="#83CC7C" fill-rule="evenodd" stroke-width="0" fill-opacity="1" />
  <text x="0.506188988685608" y="36.7967185974121" dx="0" dy="0" font-family="Arial" font-size="7.20000017166138pt" fill="#000000" style="text-anchor:start" transform="matrix(0.750000 0.000000 0.000000 0.750000 705.108581542969 261.859405517578)">New_2012_2013</text>
  <path d="M779.358520507813,285.484375 C779.358520507813,298.532104492188 762.737121582031,309.109375 742.233581542969,309.109375 C721.72998046875,309.109405517578 705.108581542969,298.532135009766 705.108581542969,285.484405517578 C705.108581542969,285.484405517578 705.108581542969,285.484405517578 705.108581542969,285.484405517578 L705.108581542969,285.484405517578 C705.108520507813,272.436676025391 721.72998046875,261.859405517578 742.233520507813,261.859405517578 C762.737060546875,261.859375 779.358520507813,272.436645507813 779.358520507813,285.484405517578 C779.358520507813,285.484405517578 779.358520507813,285.484405517578 779.358520507813,285.484405517578 " stroke="none" fill="none" stroke-width="0.6" stroke-opacity="0" />
  <path d="M561.980102539063,162.236068725586 L619.222229003906,162.236068725586 L619.222229003906,162.236068725586 C623.918823242188,162.236053466797 627.726135253906,166.043395996094 627.726135253906,170.739990234375 C627.726135253906,170.739990234375 627.726135253906,170.740005493164 627.726135253906,170.740005493164 L627.726196289063,170.740005493164 L627.726196289063,200.982131958008 L627.726135253906,200.982116699219 C627.726135253906,205.6787109375 623.918823242188,209.486053466797 619.222229003906,209.486053466797 L619.222229003906,209.486068725586 L561.980102539063,209.486068725586 L561.980102539063,209.486053466797 C557.283508300781,209.486068725586 553.476196289063,205.678726196289 553.476196289063,200.982131958008 L553.476196289063,170.740005493164 L553.476135253906,170.740005493164 C553.476135253906,166.043411254883 557.283508300781,162.236068725586 561.980102539063,162.236053466797 " stroke="none" fill="#F2E279" fill-rule="evenodd" stroke-width="0" fill-opacity="1" />
  <text x="4.1861891746521" y="29.8967189788818" dx="0" dy="0" font-family="Arial" font-size="7.20000017166138pt" fill="#000000" style="text-anchor:start" transform="matrix(0.750000 0.000000 0.000000 0.750000 553.476196289063 162.236068725586)">Select Layer By </text>
  <text x="24.1888561248779" y="43.6967163085938" dx="0" dy="0" font-family="Arial" font-size="7.20000017166138pt" fill="#000000" style="text-anchor:start" transform="matrix(0.750000 0.000000 0.000000 0.750000 553.476196289063 162.236068725586)">Location</text>
  <path d="M561.980102539063,162.236068725586 L619.222229003906,162.236068725586 L619.222229003906,162.236068725586 C623.918823242188,162.236053466797 627.726135253906,166.043395996094 627.726135253906,170.739990234375 C627.726135253906,170.739990234375 627.726135253906,170.740005493164 627.726135253906,170.740005493164 L627.726196289063,170.740005493164 L627.726196289063,200.982131958008 L627.726135253906,200.982116699219 C627.726135253906,205.6787109375 623.918823242188,209.486053466797 619.222229003906,209.486053466797 L619.222229003906,209.486068725586 L561.980102539063,209.486068725586 L561.980102539063,209.486053466797 C557.283508300781,209.486068725586 553.476196289063,205.678726196289 553.476196289063,200.982131958008 L553.476196289063,170.740005493164 L553.476135253906,170.740005493164 C553.476135253906,166.043411254883 557.283508300781,162.236068725586 561.980102539063,162.236053466797 " stroke="none" fill="none" stroke-width="0.6" stroke-opacity="0" />
  <path d="M869.821350097656,130.842666625977 C869.821350097656,143.890396118164 853.199951171875,154.467666625977 832.696411132813,154.467666625977 C812.192810058594,154.467681884766 795.571411132813,143.890411376953 795.571411132813,130.842681884766 C795.571411132813,130.842681884766 795.571411132813,130.842681884766 795.571411132813,130.842681884766 L795.571411132813,130.842697143555 C795.571350097656,117.794967651367 812.192810058594,107.21768951416 832.696350097656,107.217681884766 C853.199890136719,107.217666625977 869.821350097656,117.794937133789 869.821350097656,130.842681884766 C869.821350097656,130.842681884766 869.821350097656,130.842681884766 869.821350097656,130.842681884766 " stroke="none" fill="#83CC7C" fill-rule="evenodd" stroke-width="0" fill-opacity="1" />
  <text x="1.51218891143799" y="29.8967189788818" dx="0" dy="0" font-family="Arial" font-size="7.20000017166138pt" fill="#000000" style="text-anchor:start" transform="matrix(0.750000 0.000000 0.000000 0.750000 795.571411132813 107.217681884766)">parcel_to_poin</text>
  <text x="77.5715255737305" y="29.8967189788818" dx="0" dy="0" font-family="Arial" font-size="7.20000017166138pt" fill="#000000" style="text-anchor:start" transform="matrix(0.750000 0.000000 0.000000 0.750000 795.571411132813 107.217681884766)"> ...</text>
  <text x="40.8768539428711" y="43.6967163085938" dx="0" dy="0" font-family="Arial" font-size="7.20000017166138pt" fill="#000000" style="text-anchor:start" transform="matrix(0.750000 0.000000 0.000000 0.750000 795.571411132813 107.217681884766)">(2)</text>
  <path d="M869.821350097656,130.842666625977 C869.821350097656,143.890396118164 853.199951171875,154.467666625977 832.696411132813,154.467666625977 C812.192810058594,154.467681884766 795.571411132813,143.890411376953 795.571411132813,130.842681884766 C795.571411132813,130.842681884766 795.571411132813,130.842681884766 795.571411132813,130.842681884766 L795.571411132813,130.842697143555 C795.571350097656,117.794967651367 812.192810058594,107.21768951416 832.696350097656,107.217681884766 C853.199890136719,107.217666625977 869.821350097656,117.794937133789 869.821350097656,130.842681884766 C869.821350097656,130.842681884766 869.821350097656,130.842681884766 869.821350097656,130.842681884766 " stroke="none" fill="none" stroke-width="0.6" stroke-opacity="0" />
  <path d="M822.250427246094,198.9970703125 C822.250427246094,212.044799804688 805.629028320313,222.6220703125 785.12548828125,222.6220703125 C764.621887207031,222.622085571289 748.00048828125,212.044815063477 748.00048828125,198.997085571289 C748.00048828125,198.997085571289 748.00048828125,198.997085571289 748.00048828125,198.997085571289 L748.00048828125,198.997100830078 C748.000427246094,185.949371337891 764.621887207031,175.372085571289 785.125427246094,175.372085571289 C805.628967285156,175.3720703125 822.250427246094,185.949340820313 822.250427246094,198.997085571289 C822.250427246094,198.997085571289 822.250427246094,198.997085571289 822.250427246094,198.997085571289 " stroke="none" fill="#83CC7C" fill-rule="evenodd" stroke-width="0" fill-opacity="1" />
  <text x="10.8535223007202" y="29.8967189788818" dx="0" dy="0" font-family="Arial" font-size="7.20000017166138pt" fill="#000000" style="text-anchor:start" transform="matrix(0.750000 0.000000 0.000000 0.750000 748.00048828125 175.372085571289)">Output Layer </text>
  <text x="26.8695220947266" y="43.6967163085938" dx="0" dy="0" font-family="Arial" font-size="7.20000017166138pt" fill="#000000" style="text-anchor:start" transform="matrix(0.750000 0.000000 0.000000 0.750000 748.00048828125 175.372085571289)">Names</text>
  <path d="M822.250427246094,198.9970703125 C822.250427246094,212.044799804688 805.629028320313,222.6220703125 785.12548828125,222.6220703125 C764.621887207031,222.622085571289 748.00048828125,212.044815063477 748.00048828125,198.997085571289 C748.00048828125,198.997085571289 748.00048828125,198.997085571289 748.00048828125,198.997085571289 L748.00048828125,198.997100830078 C748.000427246094,185.949371337891 764.621887207031,175.372085571289 785.125427246094,175.372085571289 C805.628967285156,175.3720703125 822.250427246094,185.949340820313 822.250427246094,198.997085571289 C822.250427246094,198.997085571289 822.250427246094,198.997085571289 822.250427246094,198.997085571289 " stroke="none" fill="none" stroke-width="0.6" stroke-opacity="0" />
  <path d="M720.513244628906,86.5357208251953 C720.513244628906,96.3215103149414 708.047180175781,104.254470825195 692.669555664063,104.254470825195 C677.291870117188,104.25447845459 664.825805664063,96.3215255737305 664.825805664063,86.5357284545898 C664.825805664063,86.5357284545898 664.825805664063,86.5357284545898 664.825805664063,86.5357284545898 L664.825744628906,86.5357360839844 C664.825744628906,76.7499465942383 677.291809082031,68.8169784545898 692.669494628906,68.8169784545898 C708.047180175781,68.8169708251953 720.513244628906,76.7499160766602 720.513244628906,86.5357284545898 C720.513244628906,86.5357284545898 720.513244628906,86.5357284545898 720.513244628906,86.5357284545898 " stroke="none" fill="#82CAED" fill-rule="evenodd" stroke-width="0" fill-opacity="1" />
  <text x="8.48952198028564" y="28.9217185974121" dx="0" dy="0" font-family="Arial" font-size="7.20000017166138pt" fill="#000000" style="text-anchor:start" transform="matrix(0.750000 0.000000 0.000000 0.750000 664.825805664063 68.8169784545898)">Count (2)</text>
  <path d="M720.513244628906,86.5357208251953 C720.513244628906,96.3215103149414 708.047180175781,104.254470825195 692.669555664063,104.254470825195 C677.291870117188,104.25447845459 664.825805664063,96.3215255737305 664.825805664063,86.5357284545898 C664.825805664063,86.5357284545898 664.825805664063,86.5357284545898 664.825805664063,86.5357284545898 L664.825744628906,86.5357360839844 C664.825744628906,76.7499465942383 677.291809082031,68.8169784545898 692.669494628906,68.8169784545898 C708.047180175781,68.8169708251953 720.513244628906,76.7499160766602 720.513244628906,86.5357284545898 C720.513244628906,86.5357284545898 720.513244628906,86.5357284545898 720.513244628906,86.5357284545898 " stroke="none" fill="none" stroke-width="0.6" stroke-opacity="0" />
  <path d="M861.974243164063,214.003601074219 L919.216369628906,214.003601074219 L919.216369628906,214.003601074219 C923.912963867188,214.00358581543 927.720275878906,217.810928344727 927.720275878906,222.507522583008 C927.720275878906,222.507522583008 927.720275878906,222.507537841797 927.720275878906,222.507537841797 L927.720336914063,222.507537841797 L927.720336914063,252.749664306641 L927.720275878906,252.749649047852 C927.720275878906,257.446228027344 923.912963867188,261.253570556641 919.216369628906,261.253570556641 L919.216369628906,261.253601074219 L861.974243164063,261.253601074219 L861.974243164063,261.253570556641 C857.277648925781,261.253601074219 853.470336914063,257.446258544922 853.470336914063,252.749664306641 L853.470336914063,222.507537841797 L853.470275878906,222.507537841797 C853.470275878906,217.810943603516 857.277648925781,214.003601074219 861.974243164063,214.00358581543 " stroke="none" fill="#F2E279" fill-rule="evenodd" stroke-width="0" fill-opacity="1" />
  <text x="6.52618932723999" y="29.8967189788818" dx="0" dy="0" font-family="Arial" font-size="7.20000017166138pt" fill="#000000" style="text-anchor:start" transform="matrix(0.750000 0.000000 0.000000 0.750000 853.470336914063 214.003601074219)">Copy Features </text>
  <text x="40.8768539428711" y="43.6967163085938" dx="0" dy="0" font-family="Arial" font-size="7.20000017166138pt" fill="#000000" style="text-anchor:start" transform="matrix(0.750000 0.000000 0.000000 0.750000 853.470336914063 214.003601074219)">(2)</text>
  <path d="M861.974243164063,214.003601074219 L919.216369628906,214.003601074219 L919.216369628906,214.003601074219 C923.912963867188,214.00358581543 927.720275878906,217.810928344727 927.720275878906,222.507522583008 C927.720275878906,222.507522583008 927.720275878906,222.507537841797 927.720275878906,222.507537841797 L927.720336914063,222.507537841797 L927.720336914063,252.749664306641 L927.720275878906,252.749649047852 C927.720275878906,257.446228027344 923.912963867188,261.253570556641 919.216369628906,261.253570556641 L919.216369628906,261.253601074219 L861.974243164063,261.253601074219 L861.974243164063,261.253570556641 C857.277648925781,261.253601074219 853.470336914063,257.446258544922 853.470336914063,252.749664306641 L853.470336914063,222.507537841797 L853.470275878906,222.507537841797 C853.470275878906,217.810943603516 857.277648925781,214.003601074219 861.974243164063,214.00358581543 " stroke="none" fill="none" stroke-width="0.6" stroke-opacity="0" />
  <path d="M887.494384765625,398.642395019531 C887.494384765625,412.266479492188 870.277099609375,423.311004638672 849.038452148438,423.311004638672 C827.7998046875,423.311004638672 810.58251953125,412.266510009766 810.58251953125,398.642395019531 C810.58251953125,398.642395019531 810.58251953125,398.642395019531 810.58251953125,398.642395019531 L810.582458496094,398.642425537109 C810.582458496094,385.018341064453 827.799743652344,373.973815917969 849.038391113281,373.973815917969 C870.277038574219,373.973785400391 887.494384765625,385.018280029297 887.494384765625,398.642395019531 C887.494384765625,398.642395019531 887.494384765625,398.642395019531 887.494384765625,398.642395019531 " stroke="none" fill="#83CC7C" fill-rule="evenodd" stroke-width="0" fill-opacity="1" />
  <text x="3.61618900299072" y="38.1881866455078" dx="0" dy="0" font-family="Arial" font-size="7.20000017166138pt" fill="#000000" style="text-anchor:start" transform="matrix(0.750000 0.000000 0.000000 0.750000 810.58251953125 373.973815917969)">Pow_13_12_n</text>
  <text x="78.3481903076172" y="38.1881866455078" dx="0" dy="0" font-family="Arial" font-size="7.20000017166138pt" fill="#000000" style="text-anchor:start" transform="matrix(0.750000 0.000000 0.000000 0.750000 810.58251953125 373.973815917969)"> ...</text>
  <path d="M887.494384765625,398.642395019531 C887.494384765625,412.266479492188 870.277099609375,423.311004638672 849.038452148438,423.311004638672 C827.7998046875,423.311004638672 810.58251953125,412.266510009766 810.58251953125,398.642395019531 C810.58251953125,398.642395019531 810.58251953125,398.642395019531 810.58251953125,398.642395019531 L810.582458496094,398.642425537109 C810.582458496094,385.018341064453 827.799743652344,373.973815917969 849.038391113281,373.973815917969 C870.277038574219,373.973785400391 887.494384765625,385.018280029297 887.494384765625,398.642395019531 C887.494384765625,398.642395019531 887.494384765625,398.642395019531 887.494384765625,398.642395019531 " stroke="none" fill="none" stroke-width="0.6" stroke-opacity="0" />
  <path d="M609.816467285156,540.178100585938 L667.05859375,540.178100585938 L667.05859375,540.178100585938 C671.755187988281,540.178039550781 675.5625,543.985412597656 675.5625,548.682006835938 C675.5625,548.682006835938 675.5625,548.682006835938 675.5625,548.682006835938 L675.562561035156,548.682006835938 L675.562561035156,578.924133300781 L675.5625,578.924133300781 C675.5625,583.620727539063 671.755187988281,587.428039550781 667.05859375,587.428039550781 L667.05859375,587.428100585938 L609.816467285156,587.428100585938 L609.816467285156,587.428039550781 C605.119873046875,587.428100585938 601.312561035156,583.620727539063 601.312561035156,578.924133300781 L601.312561035156,548.682006835938 L601.3125,548.682006835938 C601.3125,543.985412597656 605.119873046875,540.178100585938 609.816467285156,540.178039550781 " stroke="none" fill="#F2E279" fill-rule="evenodd" stroke-width="0" fill-opacity="1" />
  <text x="6.1861891746521" y="36.7967185974121" dx="0" dy="0" font-family="Arial" font-size="7.20000017166138pt" fill="#000000" style="text-anchor:start" transform="matrix(0.750000 0.000000 0.000000 0.750000 601.312561035156 540.178100585938)">Spatial Join (2)</text>
  <path d="M609.816467285156,540.178100585938 L667.05859375,540.178100585938 L667.05859375,540.178100585938 C671.755187988281,540.178039550781 675.5625,543.985412597656 675.5625,548.682006835938 C675.5625,548.682006835938 675.5625,548.682006835938 675.5625,548.682006835938 L675.562561035156,548.682006835938 L675.562561035156,578.924133300781 L675.5625,578.924133300781 C675.5625,583.620727539063 671.755187988281,587.428039550781 667.05859375,587.428039550781 L667.05859375,587.428100585938 L609.816467285156,587.428100585938 L609.816467285156,587.428039550781 C605.119873046875,587.428100585938 601.312561035156,583.620727539063 601.312561035156,578.924133300781 L601.312561035156,548.682006835938 L601.3125,548.682006835938 C601.3125,543.985412597656 605.119873046875,540.178100585938 609.816467285156,540.178039550781 " stroke="none" fill="none" stroke-width="0.6" stroke-opacity="0" />
  <path d="M874.70703125,548.381713867188 C874.70703125,569.946411132813 840.368469238281,587.427978515625 798.009826660156,587.427978515625 C755.651062011719,587.428039550781 721.312561035156,569.946411132813 721.312561035156,548.381774902344 C721.312561035156,548.381774902344 721.312561035156,548.381774902344 721.312561035156,548.381774902344 L721.3125,548.381774902344 C721.3125,526.817138671875 755.651000976563,509.335510253906 798.009704589844,509.335510253906 C840.368408203125,509.335479736328 874.706970214844,526.817077636719 874.70703125,548.381774902344 C874.70703125,548.381774902344 874.70703125,548.381774902344 874.70703125,548.381774902344 " stroke="none" fill="#83CC7C" fill-rule="evenodd" stroke-width="0" fill-opacity="1" />
  <text x="60.6068534851074" y="57.3584060668945" dx="0" dy="0" font-family="Arial" font-size="7.20000017166138pt" fill="#000000" style="text-anchor:start" transform="matrix(0.750000 0.000000 0.000000 0.750000 721.312561035156 509.335510253906)">Gooch_22_21</text>
  <path d="M874.70703125,548.381713867188 C874.70703125,569.946411132813 840.368469238281,587.427978515625 798.009826660156,587.427978515625 C755.651062011719,587.428039550781 721.312561035156,569.946411132813 721.312561035156,548.381774902344 C721.312561035156,548.381774902344 721.312561035156,548.381774902344 721.312561035156,548.381774902344 L721.3125,548.381774902344 C721.3125,526.817138671875 755.651000976563,509.335510253906 798.009704589844,509.335510253906 C840.368408203125,509.335479736328 874.706970214844,526.817077636719 874.70703125,548.381774902344 C874.70703125,548.381774902344 874.70703125,548.381774902344 874.70703125,548.381774902344 " stroke="none" fill="none" stroke-width="0.6" stroke-opacity="0" />
  <path d="M287.175567626953,124.489372253418 C287.175567626953,128.631500244141 283.817718505859,131.989364624023 279.675598144531,131.989364624023 C275.533447265625,131.989379882813 272.175598144531,128.63151550293 272.175598144531,124.489379882813 L272.175567626953,124.489379882813 C272.175567626953,120.347244262695 275.533447265625,116.989379882813 279.675567626953,116.989379882813 C283.817718505859,116.989372253418 287.175567626953,120.347229003906 287.175567626953,124.489372253418 C287.175567626953,124.489372253418 287.175567626953,124.489379882813 287.175567626953,124.489379882813 " stroke="none" fill="none" fill-rule="evenodd" stroke-width="0" fill-opacity="0" />
  <text x="2.70618915557861" y="15.2967185974121" dx="0" dy="0" font-family="Arial" font-size="7.20000017166138pt" fill="#555555" style="text-anchor:start" font-weight="bold" transform="matrix(0.750000 0.000000 0.000000 0.750000 272.175598144531 116.989379882813)">P</text>
  <path d="M287.175567626953,124.489372253418 C287.175567626953,128.631500244141 283.817718505859,131.989364624023 279.675598144531,131.989364624023 C275.533447265625,131.989379882813 272.175598144531,128.63151550293 272.175598144531,124.489379882813 L272.175567626953,124.489379882813 C272.175567626953,120.347244262695 275.533447265625,116.989379882813 279.675567626953,116.989379882813 C283.817718505859,116.989372253418 287.175567626953,120.347229003906 287.175567626953,124.489372253418 C287.175567626953,124.489372253418 287.175567626953,124.489379882813 287.175567626953,124.489379882813 " stroke="none" fill="none" stroke-width="0.6" stroke-opacity="0" />
  <path d="M285.373474121094,340.151763916016 C285.373474121094,344.293914794922 282.015625,347.651763916016 277.873504638672,347.651763916016 C273.731353759766,347.651794433594 270.373504638672,344.293914794922 270.373504638672,340.151794433594 L270.373474121094,340.151794433594 C270.373474121094,336.009643554688 273.731353759766,332.651794433594 277.873474121094,332.651794433594 C282.015625,332.651763916016 285.373474121094,336.009643554688 285.373474121094,340.151763916016 C285.373474121094,340.151763916016 285.373474121094,340.151794433594 285.373474121094,340.151794433594 " stroke="none" fill="none" fill-rule="evenodd" stroke-width="0" fill-opacity="0" />
  <text x="2.70618915557861" y="15.2967185974121" dx="0" dy="0" font-family="Arial" font-size="7.20000017166138pt" fill="#555555" style="text-anchor:start" font-weight="bold" transform="matrix(0.750000 0.000000 0.000000 0.750000 270.373504638672 332.651794433594)">P</text>
  <path d="M285.373474121094,340.151763916016 C285.373474121094,344.293914794922 282.015625,347.651763916016 277.873504638672,347.651763916016 C273.731353759766,347.651794433594 270.373504638672,344.293914794922 270.373504638672,340.151794433594 L270.373474121094,340.151794433594 C270.373474121094,336.009643554688 273.731353759766,332.651794433594 277.873474121094,332.651794433594 C282.015625,332.651763916016 285.373474121094,336.009643554688 285.373474121094,340.151763916016 C285.373474121094,340.151763916016 285.373474121094,340.151794433594 285.373474121094,340.151794433594 " stroke="none" fill="none" stroke-width="0.6" stroke-opacity="0" />
  <path d="M167.294158935547,38.320255279541 L285.564270019531,38.320255279541 L285.564270019531,118.035873413086 L167.294158935547,118.035873413086 L167.294158935547,38.320255279541 " stroke="none" fill="none" fill-rule="evenodd" stroke-width="0" fill-opacity="0" />
  <text x="10.0285215377808" y="50.7421607971191" dx="0" dy="0" font-family="Arial" font-size="10.8000002574921pt" fill="#555555" style="text-anchor:start" transform="matrix(0.750000 0.000000 0.000000 0.750000 167.294158935547 38.320255279541)">Parcel Layer for </text>
  <text x="24.0201892852783" y="71.4388275146484" dx="0" dy="0" font-family="Arial" font-size="10.8000002574921pt" fill="#555555" style="text-anchor:start" transform="matrix(0.750000 0.000000 0.000000 0.750000 167.294158935547 38.320255279541)">Recent Year</text>
  <path d="M167.294158935547,38.320255279541 L285.564270019531,38.320255279541 L285.564270019531,118.035873413086 L167.294158935547,118.035873413086 L167.294158935547,38.320255279541 " stroke="none" fill="none" stroke-width="0.6" stroke-opacity="0" />
  <path d="M174.374053955078,408.084350585938 L266.382659912109,408.084350585938 L266.382659912109,466.368713378906 L174.374053955078,466.368713378906 L174.374053955078,408.084350585938 " stroke="none" fill="none" fill-rule="evenodd" stroke-width="0" fill-opacity="0" />
  <text x="5.52185583114624" y="36.454662322998" dx="0" dy="0" font-family="Arial" font-size="10.8000002574921pt" fill="#555555" style="text-anchor:start" transform="matrix(0.750000 0.000000 0.000000 0.750000 174.374053955078 408.084350585938)">Parcel Layer </text>
  <text x="5.01285600662231" y="57.1513290405273" dx="0" dy="0" font-family="Arial" font-size="10.8000002574921pt" fill="#555555" style="text-anchor:start" transform="matrix(0.750000 0.000000 0.000000 0.750000 174.374053955078 408.084350585938)">for Initial Year</text>
  <path d="M174.374053955078,408.084350585938 L266.382659912109,408.084350585938 L266.382659912109,466.368713378906 L174.374053955078,466.368713378906 L174.374053955078,408.084350585938 " stroke="none" fill="none" stroke-width="0.6" stroke-opacity="0" />
  <path d="M748.46484375,302.479370117188 L889.817932128906,302.479370117188 L889.817932128906,374.408050537109 L748.46484375,374.408050537109 L748.46484375,302.479370117188 " stroke="none" fill="none" fill-rule="evenodd" stroke-width="0" fill-opacity="0" />
  <text x="21.8975219726563" y="35.2025299072266" dx="0" dy="0" font-family="Arial" font-size="10.8000002574921pt" fill="#555555" style="text-anchor:start" transform="matrix(0.750000 0.000000 0.000000 0.750000 748.46484375 302.479370117188)">Layer Containing </text>
  <text x="11.8975219726563" y="55.8991966247559" dx="0" dy="0" font-family="Arial" font-size="10.8000002574921pt" fill="#555555" style="text-anchor:start" transform="matrix(0.750000 0.000000 0.000000 0.750000 748.46484375 302.479370117188)">2012 Parcels which </text>
  <text x="55.0841865539551" y="76.5958633422852" dx="0" dy="0" font-family="Arial" font-size="10.8000002574921pt" fill="#555555" style="text-anchor:start" transform="matrix(0.750000 0.000000 0.000000 0.750000 748.46484375 302.479370117188)">broke off</text>
  <path d="M748.46484375,302.479370117188 L889.817932128906,302.479370117188 L889.817932128906,374.408050537109 L748.46484375,374.408050537109 L748.46484375,302.479370117188 " stroke="none" fill="none" stroke-width="0.6" stroke-opacity="0" />
  <path d="M693.446899414063,594.651245117188 L834.799987792969,594.651245117188 L834.799987792969,666.579895019531 L693.446899414063,666.579895019531 L693.446899414063,594.651245117188 " stroke="none" fill="none" fill-rule="evenodd" stroke-width="0" fill-opacity="0" />
  <text x="2.39918899536133" y="45.5508651733398" dx="0" dy="0" font-family="Arial" font-size="10.8000002574921pt" fill="#555555" style="text-anchor:start" transform="matrix(0.750000 0.000000 0.000000 0.750000 693.446899414063 594.651245117188)">Final layer Containing </text>
  <text x="22.4185237884521" y="66.2475280761719" dx="0" dy="0" font-family="Arial" font-size="10.8000002574921pt" fill="#555555" style="text-anchor:start" transform="matrix(0.750000 0.000000 0.000000 0.750000 693.446899414063 594.651245117188)">Parcelized Items</text>
  <path d="M693.446899414063,594.651245117188 L834.799987792969,594.651245117188 L834.799987792969,666.579895019531 L693.446899414063,666.579895019531 L693.446899414063,594.651245117188 " stroke="none" fill="none" stroke-width="0.6" stroke-opacity="0" />
  <path d="M320.528625488281,157.534805297852 L422.5390625,157.534805297852 L422.5390625,215.513336181641 L320.528625488281,215.513336181641 L320.528625488281,157.534805297852 " stroke="none" fill="none" fill-rule="evenodd" stroke-width="0" fill-opacity="0" />
  <text x="3.68352222442627" y="25.902437210083" dx="0" dy="0" font-family="Arial" font-size="10.8000002574921pt" fill="#555555" style="text-anchor:start" transform="matrix(0.750000 0.000000 0.000000 0.750000 320.528625488281 157.534805297852)">Converting the </text>
  <text x="10.6891889572144" y="46.5991058349609" dx="0" dy="0" font-family="Arial" font-size="10.8000002574921pt" fill="#555555" style="text-anchor:start" transform="matrix(0.750000 0.000000 0.000000 0.750000 320.528625488281 157.534805297852)">Features into </text>
  <text x="37.6985206604004" y="67.295768737793" dx="0" dy="0" font-family="Arial" font-size="10.8000002574921pt" fill="#555555" style="text-anchor:start" transform="matrix(0.750000 0.000000 0.000000 0.750000 320.528625488281 157.534805297852)">Points</text>
  <path d="M320.528625488281,157.534805297852 L422.5390625,157.534805297852 L422.5390625,215.513336181641 L320.528625488281,215.513336181641 L320.528625488281,157.534805297852 " stroke="none" fill="none" stroke-width="0.6" stroke-opacity="0" />
  <path d="M334.247192382813,349.881713867188 L442.411041259766,349.881713867188 L442.411041259766,411.353729248047 L334.247192382813,411.353729248047 L334.247192382813,349.881713867188 " stroke="none" fill="none" fill-rule="evenodd" stroke-width="0" fill-opacity="0" />
  <text x="1.77518904209137" y="28.2314281463623" dx="0" dy="0" font-family="Arial" font-size="10.8000002574921pt" fill="#555555" style="text-anchor:start" transform="matrix(0.750000 0.000000 0.000000 0.750000 334.247192382813 349.881713867188)">Spatially Joining </text>
  <text x="6.44618892669678" y="48.928092956543" dx="0" dy="0" font-family="Arial" font-size="10.8000002574921pt" fill="#555555" style="text-anchor:start" transform="matrix(0.750000 0.000000 0.000000 0.750000 334.247192382813 349.881713867188)">the two different </text>
  <text x="5.77952241897583" y="69.624755859375" dx="0" dy="0" font-family="Arial" font-size="10.8000002574921pt" fill="#555555" style="text-anchor:start" transform="matrix(0.750000 0.000000 0.000000 0.750000 334.247192382813 349.881713867188)">time period data</text>
  <path d="M334.247192382813,349.881713867188 L442.411041259766,349.881713867188 L442.411041259766,411.353729248047 L334.247192382813,411.353729248047 L334.247192382813,349.881713867188 " stroke="none" fill="none" stroke-width="0.6" stroke-opacity="0" />
  <path d="M466.330749511719,409.488159179688 L611.245361328125,409.488159179688 L611.245361328125,480.95849609375 L466.330749511719,480.95849609375 L466.330749511719,409.488159179688 " stroke="none" fill="none" fill-rule="evenodd" stroke-width="0" fill-opacity="0" />
  <text x="21.7818565368652" y="24.548641204834" dx="0" dy="0" font-family="Arial" font-size="10.8000002574921pt" fill="#555555" style="text-anchor:start" transform="matrix(0.750000 0.000000 0.000000 0.750000 466.330749511719 409.488159179688)">Selecting Parcels </text>
  <text x="47.2968559265137" y="45.2453079223633" dx="0" dy="0" font-family="Arial" font-size="10.8000002574921pt" fill="#555555" style="text-anchor:start" transform="matrix(0.750000 0.000000 0.000000 0.750000 466.330749511719 409.488159179688)">where new </text>
  <text x="22.2775230407715" y="65.9419708251953" dx="0" dy="0" font-family="Arial" font-size="10.8000002574921pt" fill="#555555" style="text-anchor:start" transform="matrix(0.750000 0.000000 0.000000 0.750000 466.330749511719 409.488159179688)">development was </text>
  <text x="72.2961883544922" y="86.6386413574219" dx="0" dy="0" font-family="Arial" font-size="10.8000002574921pt" fill="#555555" style="text-anchor:start" transform="matrix(0.750000 0.000000 0.000000 0.750000 466.330749511719 409.488159179688)">found</text>
  <path d="M466.330749511719,409.488159179688 L611.245361328125,409.488159179688 L611.245361328125,480.95849609375 L466.330749511719,480.95849609375 L466.330749511719,409.488159179688 " stroke="none" fill="none" stroke-width="0.6" stroke-opacity="0" />
  <path d="M494.561218261719,62.206672668457 L603.494140625,62.206672668457 L603.494140625,128.599746704102 L494.561218261719,128.599746704102 L494.561218261719,62.206672668457 " stroke="none" fill="none" fill-rule="evenodd" stroke-width="0" fill-opacity="0" />
  <text x="2.79185581207275" y="31.5121288299561" dx="0" dy="0" font-family="Arial" font-size="10.8000002574921pt" fill="#555555" style="text-anchor:start" transform="matrix(0.750000 0.000000 0.000000 0.750000 494.561218261719 62.206672668457)">Selecting Points </text>
  <text x="9.78618907928467" y="52.2087936401367" dx="0" dy="0" font-family="Arial" font-size="10.8000002574921pt" fill="#555555" style="text-anchor:start" transform="matrix(0.750000 0.000000 0.000000 0.750000 494.561218261719 62.206672668457)">falling on top of </text>
  <text x="6.30185556411743" y="72.9054565429688" dx="0" dy="0" font-family="Arial" font-size="10.8000002574921pt" fill="#555555" style="text-anchor:start" transform="matrix(0.750000 0.000000 0.000000 0.750000 494.561218261719 62.206672668457)">Broken Parcels </text>
  <path d="M494.561218261719,62.206672668457 L603.494140625,62.206672668457 L603.494140625,128.599746704102 L494.561218261719,128.599746704102 L494.561218261719,62.206672668457 " stroke="none" fill="none" stroke-width="0.6" stroke-opacity="0" />
  <path d="M882.20703125,515.89794921875 C882.20703125,520.040100097656 878.849182128906,523.39794921875 874.707092285156,523.39794921875 C870.56494140625,523.398010253906 867.207092285156,520.040100097656 867.207092285156,515.898010253906 L867.20703125,515.898010253906 C867.20703125,511.755859375 870.56494140625,508.398010253906 874.70703125,508.398010253906 C878.849182128906,508.397979736328 882.20703125,511.755859375 882.20703125,515.89794921875 C882.20703125,515.89794921875 882.20703125,515.898010253906 882.20703125,515.898010253906 " stroke="none" fill="none" fill-rule="evenodd" stroke-width="0" fill-opacity="0" />
  <text x="2.70618915557861" y="15.2967185974121" dx="0" dy="0" font-family="Arial" font-size="7.20000017166138pt" fill="#555555" style="text-anchor:start" font-weight="bold" transform="matrix(0.750000 0.000000 0.000000 0.750000 867.207092285156 508.398010253906)">P</text>
  <path d="M882.20703125,515.89794921875 C882.20703125,520.040100097656 878.849182128906,523.39794921875 874.707092285156,523.39794921875 C870.56494140625,523.398010253906 867.207092285156,520.040100097656 867.207092285156,515.898010253906 L867.20703125,515.898010253906 C867.20703125,511.755859375 870.56494140625,508.398010253906 874.70703125,508.398010253906 C878.849182128906,508.397979736328 882.20703125,511.755859375 882.20703125,515.89794921875 C882.20703125,515.89794921875 882.20703125,515.898010253906 882.20703125,515.898010253906 " stroke="none" fill="none" stroke-width="0.6" stroke-opacity="0" />
</svg>